<?xml version="1.0" encoding="utf-8"?>


<!-- The icon can be used freely in both personal and commercial projects with no attribution required, but always appreciated. 
You may NOT sub-license, resell, rent, redistribute or otherwise transfer the icon without express written permission from iconmonstr.com -->


<!DOCTYPE svg PUBLIC "-//W3C//DTD SVG 1.1//EN" "http://www.w3.org/Graphics/SVG/1.1/DTD/svg11.dtd">

<svg version="1.1" xmlns="http://www.w3.org/2000/svg" xmlns:xlink="http://www.w3.org/1999/xlink" x="0px" y="0px"
	 width="512px" height="512px" viewBox="0 0 512 512" enable-background="new 0 0 512 512" xml:space="preserve">
    <path transform="scale(1, -1) translate(0, 0)" unicode="&#x270f;"  
d="M98 -60h56l-1 -46q-1 -33 24.5 -50t62.5 4q14 9 18 -4q4 -12 -6 -19q-30 -24 -66.5 -25t-62 23.5t-25.5 67.5v49zM197 697q1 31 24 54t51 24q15 1 37.5 -17t31.5 -17q34 3 54 30h5q2 -28 -14.5 -51.5t-42.5 -22.5q-23 1 -43 18t-31 17q-40 -1 -62 -35h-10zM247 570
q-19 22 -8 53.5t47 33.5q44 3 55 -38t-21 -60q-12 -16 5 -37t37 -26l-13 -16q-35 7 -63.5 31.5t-38.5 58.5zM172 388h-1q88 52 150 52q64 0 130 -47.5t66 -96.5v-404h59v-84h-208v84h60v354q0 36 -30 71.5t-77 35.5q-34 0 -78 -19.5t-72 -39.5v-210h59v-84h-208v84h60v258
h-60v84h150v-38z" />
    </svg>
