<?xml version="1.0" encoding="utf-8"?>


<!-- The icon can be used freely in both personal and commercial projects with no attribution required, but always appreciated. 
You may NOT sub-license, resell, rent, redistribute or otherwise transfer the icon without express written permission from iconmonstr.com -->


<!DOCTYPE svg PUBLIC "-//W3C//DTD SVG 1.1//EN" "http://www.w3.org/Graphics/SVG/1.1/DTD/svg11.dtd">

<svg version="1.1" xmlns="http://www.w3.org/2000/svg" xmlns:xlink="http://www.w3.org/1999/xlink" x="0px" y="0px"
	 width="30px" height="30px" viewBox="0 0 30 30" enable-background="new 0 0 30 30" xml:space="preserve">
    <path transform="scale(1, -1) translate(0, 0)" unicode="&#x270f;"  
d="M325 564q42 0 62 -7t40 -23q1 -1 3 -2q8 -6 9 2q3 22 12 41l62 -16q-19 -52 -19 -67q0 -22 19 -69l-73 -17q-15 28 -47.5 50.5t-67.5 22.5q-57 0 -101.5 -54t-44.5 -144q0 -78 42.5 -139t103.5 -61q56 0 106 61l65 -63q-28 -36 -76.5 -58.5t-94.5 -22.5q-100 0 -169 83.5 t-69 199.5t69 199.5t169 83.5z" />
    </svg>
